<svg width="32" height="32" viewBox="0 0 32 32" fill="none" xmlns="http://www.w3.org/2000/svg">
  <path d="M16 1.5 27.6 8.25v15.5L16 30.5 4.4 23.75V8.25Z" fill="#D5BB72"/>
  <path d="M16 30.5 27.6 23.75V8.25L16 15Z" fill="#B8932E"/>
  <path d="M16 8 23 12v8l-7 4-7-4v-8Z" fill="#1D1B22"/>
  <path d="M16 8 23 12l-7 4-7-4Z" fill="#E9DFC4" fill-opacity="0.92"/>
  <path d="M16 16 23 12v8Z" fill="#D5BB72"/>
  <path d="M16 16 9 12v8Z" fill="#B8932E"/>
  <path d="M16 16 9 20l7 4 7-4Z" fill="#8C6E1E"/>
  <path d="M16 8 16 16 9 12Z" fill="#FFFFFF" fill-opacity="0.18"/>
</svg>
